<svg id="Warstwa_1" data-name="Warstwa 1" xmlns="http://www.w3.org/2000/svg" viewBox="0 0 947.39 258.17"><defs><style>.cls-1{fill:#2ade93;}.cls-2{fill:#110630;}</style></defs><title>Flowhub_Logo</title><path class="cls-1" d="M162.8,22L131.86,117.8a42.42,42.42,0,0,0,0,26.07l30.94,95.81a1.59,1.59,0,0,0,3,0l30.94-95.81a42.42,42.42,0,0,0,0-26.07L165.82,22A1.59,1.59,0,0,0,162.8,22Z" transform="translate(-26.3 -20.91)"/><path class="cls-1" d="M267.49,150.66L294,71.89a1.59,1.59,0,0,0-2.43-1.8L224,118.48a42.42,42.42,0,0,0-15.5,21L182,218.22a1.59,1.59,0,0,0,2.43,1.8L252,171.64A42.42,42.42,0,0,0,267.49,150.66Z" transform="translate(-26.3 -20.91)"/><path class="cls-1" d="M221,204.26l-44.45,32.28a1.59,1.59,0,0,0,.94,2.88l54.94-.18a42.42,42.42,0,0,0,24.79-8.1l44.45-32.28a1.59,1.59,0,0,0-.94-2.88l-54.94.18A42.42,42.42,0,0,0,221,204.26Z" transform="translate(-26.3 -20.91)"/><path class="cls-1" d="M82.84,196.17L27.9,196a1.59,1.59,0,0,0-.94,2.88l44.45,32.28a42.42,42.42,0,0,0,24.79,8.1l54.93,0.18a1.59,1.59,0,0,0,.94-2.88l-44.45-32.28A42.42,42.42,0,0,0,82.84,196.17Z" transform="translate(-26.3 -20.91)"/><path class="cls-1" d="M112.83,279l23.32-7a10.61,10.61,0,0,0,5.36-3.71l14.8-19.34a1.59,1.59,0,0,0-1.72-2.49l-23.32,7a10.61,10.61,0,0,0-5.36,3.71l-14.81,19.34A1.59,1.59,0,0,0,112.83,279Z" transform="translate(-26.3 -20.91)"/><path class="cls-1" d="M172.31,248.94l14.8,19.34a10.61,10.61,0,0,0,5.36,3.71l23.32,7a1.59,1.59,0,0,0,1.72-2.49l-14.8-19.34a10.61,10.61,0,0,0-5.36-3.71l-23.32-7A1.59,1.59,0,0,0,172.31,248.94Z" transform="translate(-26.3 -20.91)"/><path class="cls-1" d="M146.59,218.23l-26.47-78.77a42.42,42.42,0,0,0-15.5-21L37.09,70.09a1.59,1.59,0,0,0-2.43,1.8l26.47,78.77a42.42,42.42,0,0,0,15.5,21L144.16,220A1.59,1.59,0,0,0,146.59,218.23Z" transform="translate(-26.3 -20.91)"/><path class="cls-1" d="M224.42,274.88a3.91,3.91,0,0,1,4-4.06,3.87,3.87,0,0,1,4,4,3.91,3.91,0,0,1-4,4.07A3.86,3.86,0,0,1,224.42,274.88Zm7.27,0a3.19,3.19,0,0,0-3.25-3.35,3.14,3.14,0,0,0-3.24,3.34,3.19,3.19,0,0,0,3.25,3.35A3.15,3.15,0,0,0,231.69,274.88ZM229,276.61l-0.73-1h-0.43v0.93a0.46,0.46,0,0,1-.49.52H227.2a0.52,0.52,0,0,1-.48-0.64v-3a0.55,0.55,0,0,1,.59-0.63h1.29c1.15,0,1.76.45,1.76,1.36a1.2,1.2,0,0,1-1,1.24l1,1.27a0.69,0.69,0,0,1-.65.41A0.77,0.77,0,0,1,229,276.61Zm-1.19-1.88h0.71a0.56,0.56,0,1,0,0-1.1h-0.69v1.1Z" transform="translate(-26.3 -20.91)"/><path class="cls-2" d="M373.81,226.11V174.36H360.4V152.55h13.41V142.44c0-11.79,3.23-20.19,9.53-25.2,4.68-4,12.28-6,22.45-6,3.23,0,12.24.32,12.83,0.81v20a71.16,71.16,0,0,0-10.4-.81c-7.76,0-11.15,2.75-11.15,9.69v11.57h16.31v21.81H397.07v51.75H373.81Z" transform="translate(-26.3 -20.91)"/><path class="cls-2" d="M428.7,113.53h24.07v82.38c0,7.27,2.74,10.5,9.37,10.5a20.62,20.62,0,0,0,5.81-.65v21.32a43.28,43.28,0,0,1-11.47,1.13c-18.58,0-27.78-9.53-27.78-28.59V113.53Z" transform="translate(-26.3 -20.91)"/><path class="cls-2" d="M550.65,154.88a39.91,39.91,0,0,1,13.25,30.53,40.49,40.49,0,0,1-13.25,30.69,47.55,47.55,0,0,1-64.13,0,40.92,40.92,0,0,1-13.08-30.69,40.33,40.33,0,0,1,13.08-30.53c8.88-8.4,19.55-12.6,32.14-12.6a44.91,44.91,0,0,1,32,12.6m-47,45.71a21.46,21.46,0,0,0,30,0,21.11,21.11,0,0,0,6.14-15.18,20.47,20.47,0,0,0-6.14-15,21.07,21.07,0,0,0-30,0,20.46,20.46,0,0,0-6.14,15,20.84,20.84,0,0,0,6.14,15.18" transform="translate(-26.3 -20.91)"/><polygon class="cls-2" points="562.96 205.2 537.28 123.79 559.57 123.79 573.94 169.18 587.83 123.79 606.57 123.79 620.62 169.18 635 123.79 657.29 123.79 631.45 205.2 611.58 205.2 597.2 158.68 582.99 205.2 562.96 205.2"/><path class="cls-2" d="M692.15,226.11V113.52h24.07v41c3.23-7.11,12-11.63,22.77-11.63,19.22,0,30.21,12.6,30.21,33.76V197.2c0,6.3,1.29,8.56,5.33,8.56,0.81,0,2.26-.16,2.42-0.16V226c-2.26.81-5.66,1.13-10.34,1.13-14.38,0-21.48-7.76-21.48-23.26V179.59c0-9.53-5-15.35-13.89-15.35s-15,6.62-15,16.15v45.71H692.15Z" transform="translate(-26.3 -20.91)"/><path class="cls-2" d="M787.13,144.7H811.2v46.52c0,9.53,5,15.35,14.05,15.35,8.88,0,15-6.62,15-16.15V144.7h24.07v52.82c0,6.46,1.62,9,6,9a40.25,40.25,0,0,0,4-.32v20a37.16,37.16,0,0,1-10.82,1.29c-5.33,0-9.85-1-13.24-2.91q-5.58-3.63-7.27-8.72c-4,7.92-12.11,12-23.9,12-20.51,0-32-12.6-32-33.76V144.7Z" transform="translate(-26.3 -20.91)"/><path class="cls-2" d="M885,226.11V113.53h24.07v41.83c2.42-7.11,12-12.11,24.23-12.11,11.47,0,21.16,4,28.75,12.27,7.75,8.08,11.63,18.09,11.63,29.88s-3.88,21.81-11.63,30c-7.59,8.08-17.28,12.12-28.75,12.12-12.28,0-21.81-5-24.23-12.12v10.66H885Zm58.63-26.17a19.74,19.74,0,0,0,6-14.54,19.14,19.14,0,0,0-6-14.38,19.85,19.85,0,0,0-14.7-6,21,21,0,0,0-15.18,6,19.28,19.28,0,0,0-6.14,14.38,19.89,19.89,0,0,0,6.14,14.54A21.48,21.48,0,0,0,929,205.76a20.34,20.34,0,0,0,14.7-5.82" transform="translate(-26.3 -20.91)"/></svg>