<svg xmlns="http://www.w3.org/2000/svg" width="640" height="480" viewBox="0 0 640 480">
  <defs>
    <style>
      .cls-1, .cls-10, .cls-11, .cls-13, .cls-14, .cls-15, .cls-16, .cls-17, .cls-18, .cls-19, .cls-2, .cls-20, .cls-21, .cls-22, .cls-4, .cls-5, .cls-6, .cls-7, .cls-8, .cls-9 {
        fill: none;
      }

      .cls-1, .cls-11, .cls-2 {
        stroke: #f5e0cd;
      }

      .cls-1, .cls-10, .cls-11, .cls-12, .cls-13, .cls-14, .cls-15, .cls-16, .cls-17, .cls-18, .cls-19, .cls-2, .cls-20, .cls-21, .cls-22, .cls-23, .cls-5, .cls-6, .cls-7, .cls-8, .cls-9 {
        stroke-miterlimit: 10;
      }

      .cls-1, .cls-19, .cls-6, .cls-9 {
        stroke-width: 10px;
      }

      .cls-2, .cls-5 {
        stroke-width: 18px;
      }

      .cls-12, .cls-3 {
        fill: #5d5e61;
      }

      .cls-12, .cls-13, .cls-14, .cls-5, .cls-9 {
        stroke: #5d5e61;
      }

      .cls-10, .cls-16, .cls-17, .cls-18, .cls-6 {
        stroke: #4a3222;
      }

      .cls-7, .cls-8 {
        stroke: #73003b;
      }

      .cls-17, .cls-20, .cls-23, .cls-7 {
        stroke-width: 8px;
      }

      .cls-10, .cls-11, .cls-21, .cls-8 {
        stroke-width: 4px;
      }

      .cls-14 {
        stroke-width: 40px;
      }

      .cls-15, .cls-23 {
        stroke: #fff;
      }

      .cls-15, .cls-22 {
        stroke-width: 7px;
      }

      .cls-18 {
        stroke-width: 12px;
      }

      .cls-19, .cls-20, .cls-21, .cls-22 {
        stroke: #000;
      }

      .cls-23 {
        fill: #fff;
      }
    </style>
  </defs>
  <title>brooks</title>
  <g id="Layer_5" data-name="Layer 5">
    <path class="cls-1" d="M215.37,207A78,78,0,0,1,221,168"/>
    <path class="cls-1" d="M275.47,199.83a31.14,31.14,0,0,0-45.58-21c-6.91,3.82-12.55,11.44-11.09,19.21,1-8.67,6.55-15.5,14.32-19.48a27.23,27.23,0,0,1,25.14.36C265.9,183.15,274.69,191.14,275.47,199.83Z"/>
    <path class="cls-1" d="M270,208.33a40.21,40.21,0,0,0-2.75-14.75c-.8-2.07-.6-4.07-2.25-5.56"/>
    <path class="cls-1" d="M217.32,214.43a14.55,14.55,0,0,1,10.87-3.14,33.42,33.42,0,0,1,11.05,3.39,98.13,98.13,0,0,1,24.11,15.87"/>
    <path class="cls-1" d="M217.27,208a205.68,205.68,0,0,0,2.1,78.45c2.27,10.16,5.79,20.87,14.16,27.06"/>
    <path class="cls-1" d="M253.62,221.51a25.71,25.71,0,0,0,17.19-16.46"/>
    <path class="cls-1" d="M322.21,205.34c-1.9-8.85-1.55-19.22,5.32-25.6,7.57-7,15.23-12.7,26.19-11.86a29.74,29.74,0,0,1,24.76,18.2c17,42.49,20.42,91.53.84,132.9"/>
    <path class="cls-1" d="M208.81,233.64a130.9,130.9,0,0,0,8.21,63,38.63,38.63,0,0,0,5.68,10.52,16.15,16.15,0,0,0,10,6.08"/>
    <path class="cls-1" d="M322.08,204.63A45.49,45.49,0,0,0,342.69,227c1.65-3.38,5.12-5.12,8.55-6.66a48.76,48.76,0,0,1,10.85-3l26.54-5.19c-16.48-.84-31.8,1.43-46.28,9.32a18.74,18.74,0,0,1-12,1.53"/>
    <path class="cls-1" d="M341.9,276c1.9,3.9,1.52,8.65-.3,12.59a26.9,26.9,0,0,1-8.4,9.78,46,46,0,0,1-41.48,7c-13.86-4.55-24-14.49-28.09-28.48a229.51,229.51,0,0,1,81.06-5.36"/>
    <path class="cls-1" d="M396.5,218.16a97.89,97.89,0,0,1,5.13,29c.4,17-3.63,33.79-7.64,50.33"/>
    <path class="cls-1" d="M340.44,286.29a35.59,35.59,0,0,1-41,19.89,71.79,71.79,0,0,1-10.12-3.63l-14.78-6.16"/>
    <path class="cls-1" d="M297.9,302.82c7.48,1.82,15.43.6,22.65-2.08S334.36,294,340.9,290"/>
    <path class="cls-1" d="M342.67,279.66a22.89,22.89,0,0,0-8.69-6.94"/>
    <path class="cls-1" d="M316.69,272.38a57.37,57.37,0,0,1-34.32,3.44"/>
    <path class="cls-1" d="M352.8,162.22A67.63,67.63,0,0,0,331,148.47"/>
    <path class="cls-1" d="M305.3,180a57,57,0,0,1,6.58-8.74q9.12-10.51,18.88-20.44"/>
    <path class="cls-1" d="M353.27,161.92l12.77-10c1.22-.95,4.46-4.51,6-4.31,1.36.18,3.87,4.27,4.75,5.32,6.1,7.29,11.74,15.07,15.63,23.79,9,20.12,8.17,44.08,19.88,62.74"/>
    <path class="cls-1" d="M372.63,139.72a38.63,38.63,0,0,1,13.16,16.56"/>
    <path class="cls-1" d="M220.11,174.31c1.3-8.95,4.64-17.46,8-25.87l2.11-5.35"/>
    <path class="cls-1" d="M225.37,143.61a10.25,10.25,0,0,1,14.68,4.56c2,4.36.94,10.09,4.34,13.43"/>
    <path class="cls-1" d="M230.55,151.45l12.71,13"/>
    <path class="cls-1" d="M256.93,166.05a40,40,0,0,1,42.06-8.8,5.78,5.78,0,0,1,2.6,1.68,6.24,6.24,0,0,1,.9,3.3l1.4,17.54"/>
    <path class="cls-1" d="M261.71,155.52c7.18-5,16.57-5.14,25.32-5.09,3.92,0,11.45-1.43,15,.07,2.79,1.19,2.62,7.65,3.15,10.86"/>
    <path class="cls-1" d="M246.79,138.31c-.28,4.53,2.24,8.7,4.67,12.54l9.49,15"/>
    <path class="cls-1" d="M250.93,133.07a112,112,0,0,0,5.94,20.85"/>
    <path class="cls-1" d="M206.81,199.48a55.71,55.71,0,0,0-7.63,25.21c-.21,3.81.09,7.95,2.51,10.9"/>
    <path class="cls-1" d="M415.33,223.67l-2.22,2.88A35,35,0,0,1,432.42,198l-5.79,33.6c-1.69,9.8-3.75,20.31-10.95,27.17"/>
    <path class="cls-1" d="M414.23,261.53c2.79-8.75.58-18.25,1.49-27.38a40.24,40.24,0,0,1,6.88-18.74"/>
    <path class="cls-1" d="M423.88,210.66l-.18,28.68"/>
    <path class="cls-1" d="M239.86,340.34a524.08,524.08,0,0,0,5.34,53.5l1.12-1.56"/>
    <path class="cls-1" d="M232.33,376.76c1.84,11.43,9,21.19,15.9,30.46l13.43,18c4.9,6.56,9.43,14.53,15.21,20.31,3.61,3.61,4.64,1.19,6.94-2.46l7.06-11.22c2.24-3.57,4.66-7.3,8.42-9.2s7.92-1.68,11.88-2.64c6.85-1.66,12.37-6.58,17.52-11.4A791.66,791.66,0,0,0,395,338.46"/>
    <path class="cls-1" d="M252.27,347a159.78,159.78,0,0,0,14.43,54.8"/>
    <path class="cls-1" d="M231,373.67l.76-1.49a29.21,29.21,0,0,0,1.5,12.3"/>
    <path class="cls-1" d="M279.87,456c1.73-5.91,6.45-10.38,11-14.55,3.13-2.88,6.26-5.77,9.61-8.38,6.36-5,13.44-8.92,20.49-12.85"/>
    <path class="cls-1" d="M326.69,416.89a201.45,201.45,0,0,0,38.69-34.59c11.21-13,20.7-27.37,30.76-41.28"/>
    <path class="cls-2" d="M391.94,296.34l5.64,51.93"/>
    <path class="cls-2" d="M214.42,226.79c-2.42,3.6-2.77,8.28-1.91,12.54s2.85,8.19,4.84,12c5.93,11.55,12.12,23,18.3,34.39,12.63,23.32,26.06,47.54,48,62.41"/>
    <path class="cls-2" d="M222.81,287.71l26.26,39.8c3.25,4.93,6.61,10,11.43,13.39,4.53,3.21,10,4.74,15.37,6.22"/>
    <path class="cls-2" d="M222.84,282.26,253,355.8"/>
    <path class="cls-2" d="M222.2,219.72c14.41,22.24,23,47.79,37.11,70.24,6.59,10.52,14.33,20.27,22.05,30,12.79,16.11,25.81,32.44,42.55,44.38"/>
    <path class="cls-2" d="M219.51,239.09c25.22,45.41,52.06,90.25,85.65,129.88"/>
    <path class="cls-2" d="M296.92,312.42l49.84,44.14"/>
    <path class="cls-2" d="M288.07,309.93l52.75,53.25"/>
    <path class="cls-2" d="M321.89,308.43a208.27,208.27,0,0,0,51.91,43.68"/>
    <path class="cls-2" d="M309.49,309.74a100,100,0,0,1,19.72,15.71"/>
    <path class="cls-2" d="M281,305.38l14.15,9.77"/>
    <path class="cls-2" d="M334.9,301a175.53,175.53,0,0,0,51.88,46.51l-3.44-2.5"/>
    <path class="cls-2" d="M343.33,297.66l.18-2.9q24.44,19.88,48,40.81"/>
    <path class="cls-2" d="M346.56,281.87l1.06-1.17a132.94,132.94,0,0,0,36.77,26.19"/>
    <path class="cls-2" d="M304.33,224.33l-6.33-3a237.7,237.7,0,0,1,84.32,72.31c-2.49-7.46-2.46-13.62-2.55-21.48L379.23,221"/>
    <path class="cls-2" d="M336.07,242.1A297.32,297.32,0,0,1,386,215.38"/>
    <path class="cls-2" d="M365.22,157.17a97.32,97.32,0,0,1,32.08,66.5"/>
    <path class="cls-2" d="M350.83,250.43a4.28,4.28,0,0,1,.91-3.57,12.75,12.75,0,0,1,2.86-2.52l19.28-13.76-.88.09"/>
    <path class="cls-2" d="M358.19,246.69c1.85,5,6.34,8.44,10.57,11.69s8.61,6.91,10.1,12"/>
    <path class="cls-2" d="M364.71,250.36l12-18"/>
    <path class="cls-2" d="M356.16,163.11a103.57,103.57,0,0,0-28.48,9.59,54.85,54.85,0,0,0-13.3,9c-11.69,11.24-14.72,28.52-17.12,44.56"/>
    <path class="cls-2" d="M318.21,172.29c2.53-1.65,4.25-4.28,5.72-6.92s2.8-5.41,4.83-7.66,4.94-3.93,7.95-3.64"/>
    <path class="cls-2" d="M333.67,156.56l10.34.35"/>
    <path class="cls-2" d="M313.65,189.33c.9,21.19,15.16,41.22,34.88,49"/>
    <path class="cls-2" d="M305,205.05a84.08,84.08,0,0,0,46.48,61.66"/>
    <path class="cls-2" d="M289.22,223.23q40.32,34.86,82.77,67.12"/>
    <path class="cls-2" d="M265,278.34,263.87,280a541.93,541.93,0,0,1,30.19-113.1"/>
    <path class="cls-2" d="M278.28,270.46c.7-3.71.34-7.57,3.59-9.36,3.65-2,10.09-2.11,14.19-2.67a142.63,142.63,0,0,1,29.57-.9"/>
    <path class="cls-2" d="M279.66,242.82l29.8,0h6.94"/>
    <path class="cls-2" d="M275.4,256.11a444.72,444.72,0,0,1,28.19-81.66"/>
    <path class="cls-2" d="M224.43,240.32,221.29,219c8.94-.13,17.84,2.87,26.1,6.31l27.92,11.62"/>
    <path class="cls-2" d="M235.48,239.3l38.36,15.61"/>
    <path class="cls-2" d="M245.51,260.4a135.54,135.54,0,0,0,24.57,7.15"/>
    <path class="cls-2" d="M263.35,233.14l6.45-16.62"/>
    <path class="cls-2" d="M224.61,170.83a66.27,66.27,0,0,1,64.08,13.81"/>
    <path class="cls-2" d="M228.74,161.42c4,1.64,8.61.86,12.71-.56s8-3.46,12.24-4.36"/>
    <path class="cls-2" d="M267.35,167.15l31.95-3.38-1-.1"/>
    <path class="cls-2" d="M269.87,179.7a30.22,30.22,0,0,0,12.11,18"/>
    <path class="cls-2" d="M248.24,359.87a42,42,0,0,0,4.15,33.81c4.27,7,10.52,12.6,15.42,19.2,4.07,5.48,7.17,11.61,10.25,17.71l4.42,8.74"/>
    <path class="cls-2" d="M257.66,360.63c36.55,12.82,78.87,8,111.57-12.8"/>
    <path class="cls-2" d="M245.88,356.89c6.52,15.56,21.26,27,37.62,31.13s34.05,1.37,49.25-6c14.49-7,26.73-17.81,38.76-28.5"/>
    <path class="cls-2" d="M257.28,354.8c1.5,5.4,6.3,9.19,11.15,12,22.9,13.26,53.38,12.08,75.18-2.91"/>
    <path class="cls-2" d="M369.12,359.46a13.55,13.55,0,0,0,9.64-10.78"/>
    <path class="cls-2" d="M264.05,394.05c12.33,7.05,27.5,7.8,41.37,4.77s26.7-9.57,39.12-16.46"/>
    <path class="cls-2" d="M272.17,411.36a49.16,49.16,0,0,0,59.12-14.88"/>
    <path class="cls-2" d="M279.08,423.25a13.44,13.44,0,0,0,16.86,1.33"/>
    <path class="cls-1" d="M322.78,193.86l2.55-3.26a56.46,56.46,0,0,0,7.21-10.84"/>
    <path class="cls-1" d="M382,208a80.56,80.56,0,0,0-2.88-17"/>
    <path class="cls-1" d="M345.81,161.38a9.57,9.57,0,0,1,4.27,4.92"/>
    <path class="cls-1" d="M425,218.79l1.89-9.79"/>
    <path class="cls-1" d="M280.54,458.29l3.6-9.47"/>
    <path class="cls-1" d="M261.21,351.36,256,358.52"/>
    <path class="cls-1" d="M276.1,291.9a37.05,37.05,0,0,0,23.4,10.83"/>
    <path class="cls-1" d="M227.67,184c4.08-.19,8-1.42,11.94-2.64l7.6-2.36"/>
    <path class="cls-1" d="M213.67,204.33V210"/>
    <path class="cls-1" d="M247.46,180.34l7.53,2.91a28.75,28.75,0,0,1,5.33,2.49,9.69,9.69,0,0,1,3.85,4.34"/>
    <path class="cls-1" d="M228.74,161.64l1.47-4.63"/>
    <path class="cls-3" d="M413.73,260.61l-1.25,1.58"/>
    <path class="cls-4" d="M138,452.11,200,455"/>
    <path class="cls-5" d="M120.52,453.59,215,457.14"/>
    <path class="cls-5" d="M144.26,431.9l79.94,18.76"/>
    <path class="cls-5" d="M192.56,386.88q24,27.84,45.39,57.87"/>
    <path class="cls-5" d="M320.86,450.78l65.51,4.32c14.12.93,28.31,1.87,42.4.61S457,450.92,469,443.5"/>
    <path class="cls-5" d="M380.54,431l67-5.47"/>
    <path class="cls-6" d="M374.19,415.5c.53-5.76,5.33-10.09,9.92-13.61A215.12,215.12,0,0,1,411.5,384"/>
    <path class="cls-6" d="M277.5,112.9l75.5.6"/>
    <path class="cls-6" d="M276,120.5h64"/>
    <path class="cls-6" d="M289.5,99.5H351"/>
    <path class="cls-1" d="M320.29,420.54A78.26,78.26,0,0,0,331.21,416"/>
  </g>
  <g id="Layer_9" data-name="Layer 9">
    <path class="cls-7" d="M282.87,288.33a35.88,35.88,0,0,0,44.58-1.68"/>
    <path class="cls-7" d="M293.5,290.56l21.5-.28"/>
    <path class="cls-8" d="M314,288.65a24.76,24.76,0,0,0,11.56-.91,44.54,44.54,0,0,0,4.89-2.55"/>
    <path class="cls-8" d="M282,288.12l13.74,1.08"/>
    <path class="cls-8" d="M283.67,289,281,287.67"/>
  </g>
  <g id="Layer_7" data-name="Layer 7">
    <path class="cls-6" d="M210.54,179.32a22,22,0,0,1-.39-11.39c.74-3.17,2.17-6.13,3.18-9.23,1.91-5.89,2.25-12.16,3.35-18.25s3.15-12.34,7.69-16.55"/>
    <path class="cls-6" d="M225.15,126.75c2.56-8.35,8.73-15,15-20.9,6.81-6.47,14-12.6,22-17.36"/>
    <path class="cls-6" d="M223.59,131.34a23.71,23.71,0,0,1,7.69-1.46,12.21,12.21,0,0,1,11.19,9.46"/>
    <path class="cls-6" d="M210.76,177.16l-.22,5.31-.06-.47"/>
    <path class="cls-6" d="M241.3,133.63l-.67-.1a70.26,70.26,0,0,1,11.26-23.11"/>
    <path class="cls-6" d="M230.7,127.58A109.8,109.8,0,0,1,265.42,94.2"/>
    <path class="cls-6" d="M251.43,113.8c5.21,4.37,7.72,11.07,10,17.47l4.15,11.51"/>
    <path class="cls-6" d="M308.07,122.43a35.15,35.15,0,0,1-30.23,17.46,61.06,61.06,0,0,0-7.77,0c-2.58.32-5.21,1.36-6.71,3.48-.14-.13.57-.21.42-.35l-1.56,3"/>
    <path class="cls-6" d="M289,143.17h-.86c2.62,2.16,4.52,1.91,6.57-.56l7.56-9.09"/>
    <path class="cls-6" d="M270.17,136.12a76.09,76.09,0,0,0-19.05-28.4"/>
    <path class="cls-6" d="M278.63,136.44a90.79,90.79,0,0,0-22.73-32"/>
    <path class="cls-6" d="M286.68,136.33A107.13,107.13,0,0,0,260.93,99.4l1.24,1.1"/>
    <path class="cls-6" d="M294.83,131.29l-11.76-13.83c-7.38-8.69-14.81-17.44-20.46-27.35"/>
    <path class="cls-6" d="M306.91,128.89a70.15,70.15,0,0,1,10,23.33"/>
    <path class="cls-6" d="M314.13,154.09,330.38,131"/>
    <path class="cls-6" d="M329.06,128.92l25.61,17.32"/>
    <path class="cls-6" d="M350.83,145.45l24-18.27"/>
    <path class="cls-6" d="M262,90.44c8.47-6.53,18.79-10.32,29.3-12.31s21.25-2.26,31.94-2.34q19.44-.14,38.88.57a16.83,16.83,0,0,1,5.83.91,5.73,5.73,0,0,1,3.67,4.3"/>
    <path class="cls-6" d="M370.56,76.32l2.58,17.35c1.3,8.71,2.84,18,8.75,24.53"/>
    <path class="cls-6" d="M270.82,94.32c5.77-5.69,14.33-7.24,22.36-8.3,6.63-.88,13.27-1.62,19.94-2.12q7.88-.59,15.77-.72a146.72,146.72,0,0,1,15.12.39c8.4.71,17.24,2.42,25-.88l-.42,1.39"/>
    <path class="cls-6" d="M369.49,91.15l-10,1c-8.84.92-17.67,1.84-26.49,2.91q-29.07,3.56-57.81,9.33"/>
    <path class="cls-6" d="M275.06,98.94a8,8,0,0,1,4.37-4.18,23.6,23.6,0,0,1,6-1.47l22.68-3.51c12.47-1.92,25.06-3.86,37.66-3.12"/>
    <path class="cls-6" d="M278.62,107.84l53.21-6.56,38.57-4.75"/>
    <path class="cls-6" d="M288.14,114.45a233.61,233.61,0,0,0,37.45-4.84c15.7-3.34,31.5-8.32,47.44-6.5"/>
    <path class="cls-6" d="M272.57,98.29a187.19,187.19,0,0,1,31.72,27.35l.21-1.3"/>
    <path class="cls-6" d="M291.12,119.44a22.79,22.79,0,0,0,7.75,8.42l.37-1.17"/>
    <path class="cls-6" d="M306.19,110.47a54.5,54.5,0,0,1,14.37,28.15l-.23-1"/>
    <path class="cls-6" d="M313,154.18l.32.49a11.33,11.33,0,0,0,4.34-6.81"/>
    <path class="cls-6" d="M297.78,116.86c5.5,1.55,11.22,3.21,15.41,7.1a18.42,18.42,0,0,1,5.66,15.65"/>
    <path class="cls-6" d="M317.26,111.82c2.9.77,5.05,3.33,6.11,6.13a28.41,28.41,0,0,1,1.36,8.85l.38,8.24.51-1.33"/>
    <path class="cls-6" d="M327.05,110.3a24.08,24.08,0,0,1,7.95,17"/>
    <path class="cls-6" d="M337.34,108.15a51.47,51.47,0,0,1,4.33,23.32L341.5,130"/>
    <path class="cls-6" d="M349.85,107.25a1.75,1.75,0,0,0-1.91,1.4,5.37,5.37,0,0,0,.21,2.6,49.23,49.23,0,0,1-.37,23.88"/>
    <path class="cls-6" d="M328,125.65a60.26,60.26,0,0,1,25,11.2"/>
    <path class="cls-6" d="M351.57,138.76a134.31,134.31,0,0,0,12.64-9.52c3-2.54,6.07-5.62,6.33-9.53s-2.52-7.53-5.15-10.58a24,24,0,0,1-13.18,2.22,32.19,32.19,0,0,1,6,16"/>
    <path class="cls-6" d="M353,130a4.64,4.64,0,0,0,2.87-2,66.8,66.8,0,0,0,8.81-14l0,.22"/>
    <path class="cls-6" d="M374.06,123.18a171,171,0,0,1,33.66,26.67l-1.39-1.52"/>
    <path class="cls-6" d="M375.71,121.75a217.22,217.22,0,0,1,19.41-38.82"/>
    <path class="cls-6" d="M379.44,120.23c4.23,3.15,9.62,4.17,14.5,6.18a49.78,49.78,0,0,1,16.56,11.9c1,1,6.77,8.95,8,8.09.7-.49-.13-5.66-.19-6.56q-.26-3.47-.72-6.92a110.77,110.77,0,0,0-7.28-27.22"/>
    <path class="cls-6" d="M383.39,118.42c.48-5,4.24-9.1,8.05-12.43s8.05-6.54,10.09-11.17"/>
    <path class="cls-6" d="M395.39,80.8l.82,4.83"/>
    <path class="cls-6" d="M389.83,118.67l-.65.32a60.7,60.7,0,0,1,22.13-15.3"/>
    <path class="cls-6" d="M391.51,119.28A34.54,34.54,0,0,1,413.46,132l0-.53"/>
    <path class="cls-6" d="M398.39,116.85l6.07-1.93c2-.64,2.42-.76,3.6,1.11a26.55,26.55,0,0,1,3.73,10"/>
    <path class="cls-6" d="M419.78,144.68a167.64,167.64,0,0,1,3.49,23.91q.44,6,.44,12.09c0,1.55.32,3.36-.57,4.6s-3.26,2.53-4.52,3.78a11.29,11.29,0,0,0-3.35,5.05,28.88,28.88,0,0,0-.43,3.08,5.06,5.06,0,0,1-1.18,2.82,2.39,2.39,0,0,1-2.83.55"/>
    <path class="cls-6" d="M412.29,202.18a82.89,82.89,0,0,1-6.14-17c-2.09-8.61-3-18.08-8.94-24.7-1.9-2.13-4.29-3.93-5.5-6.52s-1-5.77-1.48-8.69a19.19,19.19,0,0,0-8.66-13.13"/>
    <path class="cls-6" d="M377.66,131.73c1.41,2.45,4.61,3.25,7.42,3s5.54-1.19,8.36-1.31c4.32-.19,8.52,1.68,11.95,4.32a55.81,55.81,0,0,1,8.88,9.41"/>
    <path class="cls-6" d="M394,147.27c4.82,3.86,9.73,7.82,13.1,13,5,7.71,6.14,17.26,6.93,26.43"/>
    <path class="cls-6" d="M408.18,147.29a33.18,33.18,0,0,1,9.17,33.05"/>
    <path class="cls-6" d="M412.8,188.27l7.19-9.49a7.92,7.92,0,0,1,2.47-2.42L422,176"/>
    <path class="cls-6" d="M393.55,142.43c.36,2.59,3.61,3.77,4.66,6.17"/>
    <path class="cls-6" d="M413.35,189.52l.91-7.74.58-.06.39.92"/>
    <path class="cls-6" d="M345.3,190.13c-1.81-2.57-6.18-2.18-8.1.31s-1.64,6.16-.05,8.87a9,9,0,0,0,5.27,4.22,6.56,6.56,0,0,0,6.39-1.63c2.14-2.27,2-6,.38-8.69s-4.43-4.38-7.28-5.64"/>
    <path class="cls-6" d="M341,195.5l1.45,2.4a1.53,1.53,0,1,1,.67-1.5"/>
    <path class="cls-6" d="M346.09,187.36a10.13,10.13,0,0,1,4.3,8.64"/>
    <path class="cls-6" d="M249.7,206c0-3.33-1.75-8.48-1.78-11.82a3.77,3.77,0,0,1,4.55,3.48,4.7,4.7,0,0,1-4,4.5c-8.19,1.18-7.27-12.55,3.88-10.15,2.85.61,3.61,3.48,4.05,6.36a7,7,0,0,1-3.83,7.22"/>
    <path class="cls-6" d="M250.81,204.68c-.13.9-1.61,1.58-2.84,1.29a3,3,0,0,0,2.8-.58"/>
    <path class="cls-9" d="M404.72,360.17c-5,8.48-7.05,18.26-14.22,25.18a83.1,83.1,0,0,1-17,12.8c-.53.29-10.56,3.5-9.9,2.38,5.42-9.26,16-17.58,23.43-25.59,7.66-8.26,15-19.05,23.75-26.06-2.15,1.72-1.48,5.16-.2,7.6s3,5,2.37,7.71c-.48,2-2.18,3.42-3.78,4.7-1.84,1.48-5.6,5-10.23,9.1"/>
    <path class="cls-9" d="M229,355l-11.68,20.37c-1,1.74-2.09,3.58-3.88,4.51-4.26,2.22-9.11-1.91-13.92-2s-8.57,3.6-12,6.88-7.87,6.59-12.47,5.42c.63-.14.7-2.92,1.33-3.06L175,389.39c3.43-7.7,7.27-15.87,14.47-20.26,3.81-2.33,8.25-3.38,12.6-4.39l23.74-5.53"/>
    <path class="cls-9" d="M181.58,394.53l35.27,24.19c14.66,10.06,29.47,20.19,46,26.83"/>
    <path class="cls-9" d="M349.43,412,369,397.7"/>
    <path class="cls-9" d="M407,361.85l-2.65.41,3.95-5.26"/>
    <path class="cls-9" d="M221.25,378.46c-2.1,4-1.81,8.86-.25,13.07s4.26,7.88,6.94,11.48q18.6,25,37.69,49.72"/>
    <path class="cls-9" d="M213.56,369.28l-26.68,7.27"/>
    <path class="cls-9" d="M185.48,390.15a149.08,149.08,0,0,1,58,40.35"/>
    <path class="cls-9" d="M164.38,447.77l1.36-.6"/>
    <path class="cls-9" d="M215.73,364.33,218.12,411"/>
    <path class="cls-9" d="M173.72,430.64l7.77,15.45"/>
    <path class="cls-9" d="M200,379.64,201.73,397"/>
    <path class="cls-9" d="M211.27,381.66l.52,18.67"/>
    <path class="cls-9" d="M193.6,381.66l-.27,10"/>
    <path class="cls-9" d="M209.72,380.34l-2.64,16"/>
    <path class="cls-9" d="M181.64,381.18a9.42,9.42,0,0,0,9.29-4.22"/>
    <path class="cls-9" d="M221,374.33V385"/>
    <path class="cls-9" d="M226,358l3.38-4.26"/>
    <path class="cls-9" d="M211.09,373.24a3.25,3.25,0,0,0-.64,3.7,10.39,10.39,0,0,0,2.46,3.15,77.63,77.63,0,0,1,14.25,19.76,7.39,7.39,0,0,1,1,3.26,2.39,2.39,0,0,1-4.29,1.76,8,8,0,0,1-1.38-2.4"/>
    <path class="cls-9" d="M181.27,392.66a8.79,8.79,0,0,0,1.24,5.34"/>
    <path class="cls-9" d="M352.46,410.57a7.26,7.26,0,0,0-5.16,3.83"/>
    <path class="cls-9" d="M406.79,348a.21.21,0,0,1-.27.26l0-3.62v.52"/>
    <line class="cls-9" x1="88" y1="463.85" x2="526.49" y2="463.85"/>
    <path class="cls-5" d="M102.56,459.05a142.42,142.42,0,0,1,74.36-69.24"/>
    <path class="cls-5" d="M95.29,458a110.12,110.12,0,0,1,35.16-8.72,219.64,219.64,0,0,1,25.53,0l42.74,1.64c19.75.76,37.14,4.35,56.89,5.11-35.3-8.24-59.63-43.3-95-51.34"/>
    <path class="cls-5" d="M124.71,435.33a173.88,173.88,0,0,1,80.8-.88"/>
    <path class="cls-5" d="M144.5,424l-1.1-1.4a78,78,0,0,1,27-10.46"/>
    <path class="cls-5" d="M120.29,442.65a404.24,404.24,0,0,1,93.25-3.74"/>
    <path class="cls-5" d="M168,415l94.18,42.7"/>
    <path class="cls-5" d="M93.93,456c1,2.46,3.69,3.86,6.32,4.09s5.24-.49,7.8-1.12a134.78,134.78,0,0,1,60.89-.78"/>
    <path class="cls-5" d="M256.36,459.55l-.5-1.29,7.61,1.39"/>
    <path class="cls-5" d="M293.34,460.13c2.64-7,10.25-10.52,17.09-13.52a477.56,477.56,0,0,0,105.69-63.8c3.06-2.43,6.38-5.56,6.05-9.46l50.31,35.14c17.82,12.44,36.83,26.49,42.84,47.38"/>
    <path class="cls-5" d="M364.15,459.62l69-67"/>
    <path class="cls-5" d="M319.26,460.12C339.94,443,369,438.23,388.77,420c11.55-10.65,20-25.84,34.73-31.13"/>
    <path class="cls-5" d="M307.15,458.54A583.27,583.27,0,0,1,386.46,450c43.6-1.72,87.22,1.44,130.74,4.61"/>
    <path class="cls-5" d="M498.5,437l13.07,7.88"/>
    <path class="cls-5" d="M421.4,392.21a319.13,319.13,0,0,1,77.16,52.23"/>
    <path class="cls-5" d="M423,412.81l47.54,28.59"/>
    <path class="cls-5" d="M402.29,423.57c1.87,4.19,6.3,6.53,10.43,8.55L442,446.5"/>
    <path class="cls-5" d="M302.26,458.94l8.5-2"/>
    <path class="cls-5" d="M388,454.65A208.5,208.5,0,0,0,445,453.9"/>
    <path class="cls-5" d="M392.73,441.53A192.72,192.72,0,0,1,483.3,438"/>
    <path class="cls-5" d="M407.78,424.15a78.64,78.64,0,0,1,43.83-5.32"/>
    <path class="cls-5" d="M472.55,436.9l15.56,6.86"/>
    <path class="cls-5" d="M512.52,450,518,461"/>
    <path class="cls-5" d="M519.19,455.94l-.09.24a8.29,8.29,0,0,1,2.62,3.38"/>
    <path class="cls-10" d="M410.27,276.23a8,8,0,0,0,3.58-6.56"/>
    <path class="cls-10" d="M412.1,270.71a1.29,1.29,0,0,1-.41-.82l-.53,6.08c-.1,1.14-.29,2.44-1.25,3.06l.31-.73"/>
    <path class="cls-10" d="M413.56,270l1.31-.5"/>
    <path class="cls-2" d="M233.42,150v-3"/>
    <path class="cls-2" d="M222.64,178.66l.33-2.25"/>
    <path class="cls-11" d="M210.83,225.92v-4.5"/>
    <path class="cls-11" d="M273.34,286.72A39.62,39.62,0,0,0,278,292"/>
    <path class="cls-11" d="M283.07,351.14l-3.83,2.08"/>
    <path class="cls-11" d="M415.71,258.56a13.44,13.44,0,0,0-3.18,3.07"/>
    <path class="cls-5" d="M453.47,408.76A145.46,145.46,0,0,1,500.34,453"/>
    <path class="cls-5" d="M483.17,446.83,475.38,437c-10.3-13-20.62-26-31.85-38.26"/>
    <path class="cls-5" d="M451,400q8.91,5.24,17.48,11c4.35,2.94,8.82,6.22,10.94,11a69.81,69.81,0,0,1,2.12,6.86,10.73,10.73,0,0,0,3.9,5.89c1.67,1.1,3.73,1.41,5.6,2.14a13.14,13.14,0,0,1,7.38,7.42"/>
    <path class="cls-3" d="M467.53,452.42l-23-53.15"/>
    <path class="cls-6" d="M313.38,87.83a122.61,122.61,0,0,0,22.91-.28,105.36,105.36,0,0,1,12.77-1,22.42,22.42,0,0,1,12.21,3.33"/>
    <path class="cls-6" d="M324.22,91.59a192.66,192.66,0,0,1,40.39,9.6"/>
    <path class="cls-6" d="M361,80.08a83.84,83.84,0,0,0-27.55,27"/>
    <path class="cls-6" d="M365.83,110c-5.33-1-10.06-3.92-14.65-6.79L326.92,88"/>
    <path class="cls-6" d="M369,106.64,367.48,84"/>
    <path class="cls-12" d="M449.76,398.22l28.72,36.09a195.17,195.17,0,0,1,11.69,15.76"/>
    <path class="cls-13" d="M459.05,401.54a170.65,170.65,0,0,1,22.58,24.19c7.1,9.26,13.23,19.21,19.34,29.15"/>
    <path class="cls-13" d="M509.53,458,481,454.86c-14.1-1.58-28.22-3.15-42.39-3.46"/>
    <path class="cls-13" d="M500,449.19c-18,1.32-36-1.62-53.86-4.54"/>
    <path class="cls-13" d="M498.1,444.13a378.62,378.62,0,0,1-54.35-7.88"/>
    <path class="cls-13" d="M489.08,435l-37.16-8.94A224.28,224.28,0,0,0,429,421.4"/>
    <path class="cls-13" d="M489.31,429.59A162.12,162.12,0,0,0,459.88,417"/>
    <path class="cls-14" d="M489.75,436.45A419.36,419.36,0,0,1,442,420"/>
    <path class="cls-15" d="M339.3,191.76a1.58,1.58,0,0,1-1.08.31.8.8,0,0,1-.7-.77c0-.6.94-.77,1.4-.39a2.45,2.45,0,0,1,.66,1.63"/>
    <path class="cls-15" d="M343,191.11a2.79,2.79,0,0,0-1.95-3.39"/>
    <path class="cls-14" d="M425.63,401.07a130.69,130.69,0,0,1,64.8,44.49"/>
    <path class="cls-14" d="M495.18,450a161,161,0,0,0-40.91-46.34"/>
    <path class="cls-16" d="M239.06,125.48a9.51,9.51,0,0,1,1.36-7.6,4.81,4.81,0,0,1,1.13,5.64"/>
    <path class="cls-16" d="M319.3,131.54l-1,8.65L317.25,133"/>
    <path class="cls-16" d="M330,83.52l32.58,0c3.16,0,6.72.16,8.85,2.49,2,2.16,2,5.42,1.92,8.36q-.35,10.82-.67,21.63"/>
    <path class="cls-16" d="M404.2,123.31a55.7,55.7,0,0,1,16.47,43.17"/>
    <path class="cls-16" d="M312.63,117.31c-6.52-2.28-13.77-4.55-20.14-1.87-5.05,2.13-8.36,6.91-12.15,10.87a14.67,14.67,0,0,1-5.69,4.08,6.34,6.34,0,0,1-6.58-1.25c-1.25-1.32-1.64-3.22-2-5q-1.47-8-2.65-16.11"/>
    <path class="cls-16" d="M253.33,103.79c17.93-7.47,37.62-15.06,56.26-9.61,5.34,1.56,10.31,4.14,15.25,6.71l36.26,18.84"/>
    <path class="cls-17" d="M318.36,140a35.16,35.16,0,0,1,6.19-18.45"/>
    <path class="cls-17" d="M334.2,117.14a25.27,25.27,0,0,0-10.52,13.21c-.86,2.51-1.57,5.48-3.95,6.64s-5.43-.26-7.81-1.7l-14.69-8.89"/>
    <path class="cls-17" d="M306.22,119.74l13.17,11.51a13.41,13.41,0,0,1,3.05,3.33,4.55,4.55,0,0,1,.27,4.33,2.79,2.79,0,0,1-3.85,1.12"/>
    <path class="cls-18" d="M361.1,85.45l15.1,32.46"/>
    <path class="cls-18" d="M366,121.43q2.4-12,4.42-24.12a23.22,23.22,0,0,0,.43-7.19,8,8,0,0,0-3.66-5.94"/>
    <path class="cls-18" d="M409.37,117.68c15.05,14.09,20.64,37.43,13.58,56.8"/>
    <path class="cls-18" d="M362.9,129.53c-5.56.69-11.18,1.38-16.76.77s-11.17-2.64-15.06-6.68c-2.31-2.41-3.91-5.4-5.8-8.15s-4.26-5.37-7.41-6.5-7.19-.26-8.81,2.66-.27,6.76,1.9,9.36,5.05,4.55,7.09,7.26,3,6.71,1,9.4"/>
    <path class="cls-18" d="M317.71,144.85c2-8.82,8.42-16,15.52-21.59s15.08-10,22-15.87,12.85-13.55,13.91-22.53"/>
    <path class="cls-18" d="M354.38,93.56a219.1,219.1,0,0,0-72.54-3.35"/>
    <path class="cls-18" d="M367.26,115.25A510.69,510.69,0,0,0,243,106.46"/>
    <path class="cls-18" d="M239.08,118.5l-.5,12"/>
    <path class="cls-18" d="M263,123.5l.48,11"/>
    <path class="cls-18" d="M265.5,141.5l25-.5"/>
    <path class="cls-18" d="M231.12,130.22A60.61,60.61,0,0,0,249,114.46"/>
    <path class="cls-18" d="M229,125.49A60.58,60.58,0,0,1,255,107"/>
  </g>
  <g id="Layer_4" data-name="Layer 4">
    <path class="cls-19" d="M342.66,188.36a4,4,0,0,0-4-2.41,5.21,5.21,0,0,0-3.84,2.92c-1.76,3.36-.39,8.37,2.72,9.92s7.17-.75,8.05-4.56-1.67-8.15-5-8.61"/>
    <path class="cls-19" d="M248.44,190.94a3,3,0,0,0-4.26-1.78c-1.5.92-2.27,3.24-1.94,5.28a6,6,0,0,0,3.23,4.44,4,4,0,0,0,4.35-.55,5.06,5.06,0,0,0,1.36-5c-.54-1.77-2.37-2.81-3.72-2"/>
    <path class="cls-19" d="M340.67,191l-2.34,2.33"/>
    <path class="cls-19" d="M337.39,194l3.86-4.85"/>
    <path class="cls-19" d="M247.3,193.57l2.62-1a1.46,1.46,0,1,1-2.88,0"/>
  </g>
  <g id="Layer_2" data-name="Layer 2">
    <path class="cls-20" d="M362.91,339c-16,18.65-42.73,26-67,22.2s-46.19-17.4-63.8-34.54c-12.48-12.16-23.36-26.6-28-43.37-5.86-20.93-1.61-43.19,2.66-64.49l16.44-82c4.61-1,9.08-.32,12.47,3a14.68,14.68,0,0,1,4.2,12.91l.57-1.73a218.88,218.88,0,0,1,10.74-26.24c5.72,7.75,7.55,18,8.2,27.6,3.5-4.41,10.17-5.49,15.8-5.52s11.26,1.1,16.87.61,11.55-3,13.87-8.17c3.65,7.63,5.16,16.69,5.14,25.14l22.73-24.11c7.41,4.43,13.53,7.61,20.94,12,7.3-5.67,13.72-11.4,21-17.08A172.1,172.1,0,0,1,388.63,323"/>
    <path class="cls-20" d="M210.22,202.49c-10.4-32.09-2.63-69.35,19.74-94.7,17.3-19.61,42.18-31.74,68-36.55s52.51-2.71,78.16,2.83c1.37,8.17,3.06,16.28,4.43,24.44,3.14-10.85,11.57-21.28,22.16-25.39-2.06,7-5.24,14.37-7.3,21.4,4.12-3.38,8.57-7.78,12.69-11.16-1.6,6.35-3.61,13.63-5.21,20,3.61-2.32,5.87-5.23,9.48-7.55a192.82,192.82,0,0,1,16.17,95.33"/>
    <path class="cls-20" d="M409.08,220.08a153.43,153.43,0,0,1,12.19-23.93c1.58-2.53,3.44-5.17,6.25-6.08,4-1.28,8.35,1.63,10.13,5.45s1.59,8.25,1.21,12.45a160.74,160.74,0,0,1-7.39,35.61c-1.8,5.47-4,10.94-7.63,15.34s-9.15,7.59-14.84,7.25"/>
    <path class="cls-20" d="M400.21,300.31a470.15,470.15,0,0,1,.71,47.34"/>
    <path class="cls-20" d="M281.12,465.76c6.3-11.62,16-21,26.52-29.08s21.82-14.92,32.49-22.72a228.81,228.81,0,0,0,65.67-75,41.78,41.78,0,0,1,15.74,25.14c-33.47,31.36-71.94,56.44-114.64,73.18"/>
    <path class="cls-20" d="M281.73,465.24l-41.92-54.67c-5.09-6.63-10.29-13.49-12.5-21.56a33,33,0,0,1,5.49-28.22"/>
    <path class="cls-20" d="M233.55,350.13A99.73,99.73,0,0,0,167.33,385c17.1,22.76,41.58,37.79,66.24,52l48.31,27.88"/>
    <path class="cls-20" d="M169.25,387.14a153.45,153.45,0,0,0-83.87,81.21l1.28-2"/>
    <path class="cls-20" d="M421.53,364C444.67,375.92,468,388,488,404.63s36.58,38.62,42.08,64.05"/>
    <path class="cls-20" d="M206.33,192.8a13.25,13.25,0,0,0-8.61,6,26.66,26.66,0,0,0-3.66,10.06,55.32,55.32,0,0,0,6.4,37.13"/>
    <path class="cls-20" d="M235,330.51a233.25,233.25,0,0,0,2.34,59.77"/>
  </g>
  <g id="Layer_3" data-name="Layer 3">
    <path class="cls-21" d="M329.88,171.27a46.69,46.69,0,0,1,44.49,2.14"/>
    <path class="cls-21" d="M263.54,171.43A38.23,38.23,0,0,0,222,176"/>
    <path class="cls-21" d="M329,205a25.69,25.69,0,0,1,2.85-18.38,24.09,24.09,0,0,1,13.68-10.93,21.51,21.51,0,0,1,17.27,2.16c4.69,2.9,8,7.65,10.16,12.74s3.23,10.55,4.29,16c-13.37.76-26.3,3.47-37.75,10.43"/>
    <path class="cls-21" d="M283,235.49l-4,12.37,20.1,3.21a43.88,43.88,0,0,0,10.95.83,14.82,14.82,0,0,0,9.8-4.46c2.43-2.74,3.3-7,1.44-10.2"/>
    <path class="cls-21" d="M272,281.23a40.08,40.08,0,0,0,35.33,16.92,39.53,39.53,0,0,0,20.34-7.69c4.35-3.21,14.12-11.72,4.6-13.18-9.07-1.4-20.65,1.35-29.84,2Z"/>
    <path class="cls-21" d="M281,246.69c10.74-7.36,26.77-7.57,37.74-.49"/>
    <path class="cls-21" d="M274.81,285.26a212.48,212.48,0,0,0,59.64-2.09"/>
    <circle class="cls-21" cx="248.99" cy="197.67" r="11.67"/>
    <circle class="cls-21" cx="343.54" cy="195.88" r="13.65"/>
    <path class="cls-22" d="M421.14,261.63a104.27,104.27,0,0,1-21.95,38.68"/>
    <path class="cls-21" d="M254.52,216.52a65,65,0,0,0-32.27-10.17,20.4,20.4,0,0,1,4.44-12.84,28.23,28.23,0,0,1,10.93-8.3,21.26,21.26,0,0,1,8.18-2,20.61,20.61,0,0,1,7.58,1.51,18.26,18.26,0,0,1,6.26,3.73c3.95,3.79,5.05,9.58,5.95,15"/>
  </g>
  <g id="Layer_10" data-name="Layer 10">
    <circle class="cls-23" cx="244.79" cy="191.62" r="0.77"/>
    <circle class="cls-23" cx="337.57" cy="190.71" r="0.77"/>
  </g>
</svg>
