<svg version="1" xmlns="http://www.w3.org/2000/svg" width="604" height="604" viewBox="0 0 453.000000 453.000000"><path d="M232.7 24c-33 2.9-61.7 15.2-81.7 35-12.5 12.3-21 26.9-26.7 45.5-2.5 8.3-2.7 10.4-2.7 26.7-.1 9.8-.4 17.8-.8 17.8s-2.3 1.4-4.2 3.1c-9.7 8.4-11.1 32.2-3.1 49.7 2.4 5.1 2.7 7.2 3 19.2.4 16 1.9 22.9 7.9 35.5 4.6 9.7 9.9 17.2 19.4 27.6l6 6.5-.6 7.4-.7 7.3-6.5 1.3c-20.8 4.2-38.2 13.9-54.3 30.1-6.9 7-10.7 9.9-18.4 14.1-23.6 12.6-45.9 34.2-60 58-2.5 4.2-5.4 9.7-6.5 12.2l-1.9 4.4 2.3 1.8c2.6 2 4.4 2.3 5.3.9.7-1.3 435.1-1.5 435.9-.2.6.9 7.2-.1 8.3-1.2.8-.8-4.6-16.4-8-23.2-6.7-13.5-17.7-27.3-31.5-39.7-13.6-12.2-29.2-22.4-54.5-35.8l-13.8-7.3-3.8-8.3c-3-6.3-5.4-9.7-10.4-14.5l-6.6-6.4-.2-16.5-.2-16.5 3.6-4.8c4.7-6.1 10.1-15.8 13.3-23.8 1.4-3.5 3.6-7.5 4.8-8.9 3.6-4.1 5.3-7.2 8.4-16.1 6.3-17.9 9.9-42.3 7.3-50.2-.7-2-3-5.2-5.2-7l-3.9-3.4v-12.4c0-25.8-6-54.6-16.1-76.7-2.6-5.8-3-6.2-4.9-5.2-2.3 1.2-2.4 1.6 1.1-11 1-3.6 1.6-6.6 1.5-6.8-.2-.1-2.3 1.3-4.6 3.3-2.3 2-4.4 3.4-4.7 3.2-.2-.2.5-3.2 1.6-6.6 1.3-4.2 1.5-6.1.7-6.1-3.6 0-15.5 7.2-20.3 12.2l-5.1 5.5-1.4-7.1-1.3-7.1-9-1.7c-19.4-3.7-41.3-5.1-56.8-3.8zm-59.8 77.4c.6 3.4 1.3 9.2 1.7 13l.6 7 4.2-4.7c2.2-2.6 5.4-5.1 7-5.7 1.5-.6 8.5-.9 15.5-.8 11 .2 13.2 0 17.3-1.9l4.6-2.1.8 3.6c.4 2.1 1 8.1 1.3 13.5l.6 9.8 13-13.8c7.1-7.6 13.3-14 13.7-14.1.5-.2 5.4 2.2 10.9 5.3l10 5.7 10-8.1 9.9-8.2 4.6 7.1c10.3 15.9 19.2 37.8 23.6 58 2 9.2 2.3 13.2 2.2 33 0 19.6-.3 23.9-2.2 33-3.1 14.1-8.1 28.9-13.7 40.1-2.5 5-4.4 9.3-4.3 9.4.2.1 1.7 1 3.5 1.9 3.5 1.8 3.5 1.8 7.1-4.9.9-1.5 1.1 1.6 1.2 12.9v14.9l-5.5 8.2c-7.9 11.9-17.6 23.7-28 34-12 11.8-19.5 17.9-40 32-20.2 14-30.6 22.5-37.1 30.6-2.6 3.3-5.1 5.8-5.5 5.7-1.8-.7-44.9-58.1-47.3-63-2.6-5.5-4.8-17.7-2.9-16.5.6.4 1.3 3.4 1.7 6.8.3 3.4.8 6.4 1 6.6.2.3 2.1.1 4.1-.3l3.7-.7-.6-4.6c-2.8-21.1-3.5-46.7-1.3-45.8.7.2 4.8 3 9.2 6.2 9.8 7 23.1 13.5 35 17.1 8.2 2.5 10.4 2.8 25 2.8 14.8 0 16.6-.2 24.5-2.8 11.2-3.7 19.6-8.4 27-15.3 6.3-5.8 6.5-6.9 1.8-9.4-1.5-.8-2.8-.2-7.1 3.6-6.9 6.1-21.2 13.1-30.9 15-30.7 6.1-63.3-6.6-91.4-35.7-22.1-22.9-29.5-42.8-26.5-71.3.6-5.5 5.4-32.2 10.8-59.3 9.4-47.6 9.8-49.2 12-49.2 2.9 0 6.1 3.1 6.9 6.7.3 1.6.7 3.3.9 3.9.3 1 6.6 2.9 7 2.2 0-.2 1.8-4.7 3.9-10.1 4.2-10.8 4.8-10.9 6.5-1.3zM351 154c1.1.6 2.2 2.6 2.6 4.7 1.7 9-4.8 40.3-10.8 51.5-1.8 3.5-4.6 7-6.7 8.4-1.9 1.3-3.6 2.2-3.7 2.1-.2-.1.2-4.9.7-10.7.5-5.8.6-15.5.3-21.5l-.7-11 4.8-9c5.1-9.7 9-15.5 10.6-15.5.6 0 1.9.5 2.9 1zm-226.7 5.1c.3 1.2-.8 9.1-2.5 17.7-2.6 12.7-3.3 15.1-4.1 13.1-1.7-4.2-1.2-21.9.7-26.3 2.8-6.7 4.9-8.3 5.9-4.5z"/><path d="M155 125.6c-5.5 1.5-13.3 5.5-14.6 7.5-.3.6-.1 1.6.5 2.2.9.9 1.8.7 3.9-.6 8.7-5.7 17.9-7.5 27.7-5.2 9.8 2.2 9.9 2.2 10.3.4.3-1.8-2.6-3.3-9.8-4.9-6.1-1.3-11.5-1.1-18 .6zM257 125.1c-5.3 1.5-9 3.1-9 3.8 0 .3.4 1.2.8 1.9.7 1 1.7.9 4.8-.5 2.9-1.3 6.7-1.7 15.4-1.8 10.5 0 12 .2 17.4 2.8 3.8 1.7 6.3 2.4 6.9 1.8 1.8-1.8-.1-3.7-6-6.1-4.5-1.8-8.1-2.4-16.3-2.6-5.8-.2-12.1.1-14 .7zM157.2 141.6c-6.3 2.3-14.7 10.4-16.6 16.1-2.9 8.4-1.9 10.2 5.4 10.3 4.3 0 14.2 2.9 20.4 6 3.2 1.6 6.2 2.7 6.7 2.4 1.7-1 .9-3.4-1.8-4.8-2.1-1.1-2.3-1.5-1-1.6 3.7 0 7.9-3.2 9.8-7.3 1-2.3 1.9-3.4 1.9-2.5 0 2.1 1.3 3 3.3 2.2 1.9-.7.6-7.1-2.6-12.8-4.2-7.5-16.4-11.3-25.5-8zm-1.4 9.1c-2.1 4.7-2 7.4.7 13.5.6 1.5.3 1.6-2.7.8-1.8-.6-4.5-1-6.1-1-1.6 0-3-.7-3.4-1.7-1.1-2.8 3.8-10.4 8.6-13.5 2.5-1.5 4.6-2.8 4.7-2.8.2 0-.7 2.1-1.8 4.7zm11.7-2.3c2.2 3.3.5 6.6-3.3 6.6-3.3 0-5.2-1.6-5.2-4.5 0-4.8 5.8-6.2 8.5-2.1zM258.5 141.6c-5.9 2.2-10.3 7-12.1 13.2-.9 2.9-1.3 6-1 6.8.9 2.3 3.6 1.7 3.7-.9.1-2.1.1-2 1.3.5 1.8 4.1 5.5 7.6 8.9 8.4l3 .6-2.6 1.6c-2.9 1.8-3.1 2.1-1.9 4 .7 1 2.6.5 8.3-2.3 6.7-3.1 10.7-4.2 22.2-6 3.4-.5 3.7-.9 3.7-3.8 0-4.6-4.5-13.2-8.8-16.7-4.4-3.6-13-7-17.5-6.9-1.8 0-5 .7-7.2 1.5zm20.7 7.7c4.1 3 9.8 12.1 8.5 13.4-.3.3-2.8.9-5.4 1.4-2.6.5-5.6 1.2-6.6 1.5-1.7.5-1.8.4-.3-2.5 2.2-4.1 2-8.9-.4-13.4-2.5-4.6-1.4-4.7 4.2-.4zm-17.2.2c1.5 1.8.5 6.4-1.5 7.2-4.5 1.7-8.7-2.6-6.5-6.7 1.3-2.4 6.1-2.7 8-.5zM198.1 200.1c-1.2 3.5-2.1 6.8-2.1 7.4 0 1.3 24.6 5.5 31.5 5.5 5.6-.1 12-3.2 13.9-6.9 1.6-3 2.2-9.2 1-10.4-1.5-1.5-3.4.8-3.4 4 0 3-.3 3.4-1.7 2.8-8.7-3.8-13.1-4.7-20.3-4.2-4.1.3-9.2 1.3-11.3 2.1l-3.8 1.6.7-2.7c1-4.4 1-4.7-.7-5-1.3-.3-2.2 1.2-3.8 5.8zm33.4 4.4c8.9 3.6-3.7 5.3-19.4 2.6-6.1-1.1-7.1-1.5-5.5-2.4 5.3-3 18-3.1 24.9-.2zM231 235.1c-3 .4-13.8 1.3-24 1.9-10.2.7-18.7 1.4-18.9 1.6-.6.6 2.3 4.6 6 8.3 16.9 16.7 44.4 16.1 59.7-1.4 3.8-4.2 4.1-7.8 1-9.9-2.5-1.8-13.8-2-23.8-.5zm21.5 3.9c1.4 2.2-16.9 4-38.5 3.9-19-.2-18.8-.3 10-3.2 16.7-1.7 27.7-2 28.5-.7z"/></svg>